<svg height="793.701" style="shape-rendering:geometricprecision;text-rendering:geometricprecision;image-rendering:optimizequality;fill-rule:evenodd;clip-rule:evenodd" viewBox="0 0 826772 826772" width="793.701" xml:space="preserve" xmlns="http://www.w3.org/2000/svg"><defs><style>.fil3{fill:#fff;fill-rule:nonzero}</style></defs><g id="Layer_x0020_1"><circle cx="413386" cy="413386" r="413386" style="fill:#719a4e"/><path d="M825594 444750c-16029 213654-194454 382022-412208 382022-217755 0-396180-168368-412208-382022C17206 231096 195631 56035 413386 56035c217754 0 396179 175061 412208 388715z" style="fill:#7fad5b"/><path d="M728684 680722c-74250 87487-184255 143657-307443 145955L242552 587335V356441h10708l23269-33183 906-1291c-19666-2450-34883-19224-34883-39554 0-22014 17846-39861 39861-39861 15474 0 28888 8818 35493 21702v-1l64915 92188h48513v30739h980c9453-17949 32572-30739 67001-30739 41692 0 63608 13933 74650 37693l6 1 154713 286587z" style="fill:#719a4e"/><path class="fil3" d="M242552 356441h79722v227778h-79722zM282413 242552c22015 0 39861 17847 39861 39861 0 22015-17846 39862-39861 39862s-39861-17847-39861-39862c0-22014 17846-39861 39861-39861zM584219 459044c0-61466-13257-102603-84904-102603-34429 0-57548 12790-67001 30739h-980v-30739h-63504v227778h66375V471321c0-29771 5625-58595 42457-58595 36285 0 39213 34040 39213 60520v110973h68332V459044h12z"/></g></svg>